<svg xml:space="preserve" viewBox="0 0 1280 1024" height="1024" width="1280" version="1.1" xmlns:xlink="http://www.w3.org/1999/xlink" xmlns="http://www.w3.org/2000/svg">
<desc>Created with Fabric.js 5.3.0</desc>
<defs>
</defs>
<g transform="translate(640 512)">
<g transform="matrix(1.3319667470347991 0 0 1.3319667470347991 -163.59154813833933 0.560406605390195)">
<g paint-order="stroke" style="">
    <g transform="matrix(1 0 0 1 19.13743 0.002075)">
        <path stroke-linecap="round" d="M253.697 112.516v136.9H226.67l-13.517-12.99V119.735L139.124 37.864 126.773 52.385 70.482 112.143h-.097v-.055l-.055.055h.097v136.858H43.36l-5.06-7.102V103.535L126.898 6.83 148.176 0h.58l13.555 14.536h.055l22.895 24.552 68.436 73.428zM131.5 250h41.213V163.2H131.5z" transform="translate(-145.986 -125.002)" style="fill:#000"/>
    </g>
    <g transform="matrix(1 0 0 1 -13.468385 1.8926)">
        <path stroke-linecap="round" d="M43.358 249.011V249H.096V112.112l43.529-12.746v12.746v136.886h-.098zM226.663 249.41v.028H183.4V112.732h-.069l-56.567-60.354-12.408-13.165-1.423-1.52L92.76 33.973 91.298 14.534l27.113-10.187 15.955 10.187h.041l.041.043 13.928 14.784 9.161 9.727 20.421 21.679.497.524 1.064 1.133.448.468 46.48 49.59v.194l.373.194v136.678zM81.55 163.197v23.17h18.1v-23.17h-18.1zm0 28.505v23.17h18.1v-23.17h-18.1zm23.088-28.505v23.17h18.114v-23.17h-18.114zm0 28.505v23.17h18.114v-23.17h-18.114z" transform="translate(-113.38 -126.893)" style="fill:#37b6ff"/>
    </g>
    <g transform="matrix(1 0 0 1 -52.83732 -69.040945)">
        <path stroke-linecap="round" d="M148.022 0 134.523 14.48h-43.02L104.263.691 148.022 0zM112.927 37.596 111.476 39.144 43.26 111.918H0l68.215-72.774 22.06-24.608h.028l21.624 23.06z" transform="translate(-74.011 -55.959)" style="fill:#737373"/>
    </g>
</g>
</g>
</g>
</svg>
