<svg version="1.1" id="Layer_1" xmlns="http://www.w3.org/2000/svg" xmlns:xlink="http://www.w3.org/1999/xlink" x="0px" y="0px"
	 width="100%" viewBox="0 0 600 600" enable-background="new 0 0 600 600" xml:space="preserve">
<path fill="#FDFCF9" opacity="1.000000" stroke="none" 
	d="
M342.000000,601.000000 
	C228.000000,601.000000 114.500000,601.000000 1.000000,601.000000 
	C1.000000,401.000000 1.000000,201.000000 1.000000,1.000000 
	C201.000000,1.000000 401.000000,1.000000 601.000000,1.000000 
	C601.000000,201.000000 601.000000,401.000000 601.000000,601.000000 
	C514.833313,601.000000 428.666656,601.000000 342.000000,601.000000 
M230.000595,65.003433 
	C230.000595,65.003433 229.989899,64.939224 229.362503,65.183670 
	C172.905487,125.423180 116.435875,185.650879 60.007988,245.917664 
	C53.216297,253.171402 46.650627,260.636749 39.802250,268.927673 
	C39.777714,362.697662 39.751472,456.467682 39.749554,550.237671 
	C39.749531,551.327820 40.064392,552.417969 40.259087,553.682251 
	C70.357468,553.682251 100.137070,553.682251 130.873672,553.818726 
	C149.138062,553.818726 167.402435,553.818726 186.000046,553.818726 
	C186.000046,551.329590 186.000031,549.359924 186.000031,547.390259 
	C186.000046,456.110291 186.019363,364.830322 185.924988,273.550476 
	C185.921448,270.119995 186.896378,267.695007 189.238220,265.226410 
	C210.215469,243.114075 231.087875,220.902069 251.956665,198.687027 
	C269.051605,180.489319 286.099487,162.247482 303.747375,144.317688 
	C306.925842,147.728821 310.096527,151.147217 313.283936,154.549988 
	C347.792023,191.389511 382.248627,228.277649 416.896423,264.985321 
	C420.359344,268.654114 421.844208,272.192719 421.835785,277.262329 
	C421.685883,367.583771 421.725433,457.905548 421.734100,548.227234 
	C421.734406,551.277588 420.814606,554.428467 426.145752,554.379272 
	C454.471893,554.117798 482.801331,554.206055 511.876404,554.412231 
	C530.469666,554.412231 549.062927,554.412231 567.836487,554.412231 
	C567.836487,552.048157 567.836487,550.221252 567.836487,548.394348 
	C567.836487,457.281677 567.807495,366.168976 567.929993,275.056458 
	C567.935608,270.904022 566.737793,267.981049 563.936035,264.983521 
	C517.194580,214.975540 470.565277,164.862686 423.897034,114.786240 
	C399.940460,89.080139 375.985840,63.371986 351.903595,37.784012 
	C350.612640,36.412342 348.143921,36.149109 345.322479,34.992393 
	C316.668427,35.367393 288.014099,35.724339 259.361206,36.173611 
	C258.005310,36.194870 256.243317,36.639881 255.378067,37.555920 
	C246.811661,46.625000 238.394760,55.835278 230.000595,65.003433 
M399.168640,414.500061 
	C399.168640,401.396484 399.168640,388.292938 399.168640,375.103943 
	C370.300476,375.103943 341.920685,375.103943 313.398071,375.103943 
	C313.398071,435.415283 313.398071,495.453827 313.398071,555.575806 
	C342.025085,555.575806 370.418488,555.575806 398.735168,555.575806 
	C398.919250,555.015808 399.106384,554.712097 399.106598,554.408264 
	C399.136078,508.105560 399.152069,461.802826 399.168640,414.500061 
M283.475891,482.725159 
	C287.220612,482.725159 290.965332,482.725159 294.706238,482.725159 
	C294.706238,466.137360 294.706238,450.400787 294.706238,434.524536 
	C282.063965,434.524536 269.722351,434.524536 257.395691,434.524536 
	C257.395691,450.676819 257.395691,466.418213 257.395691,482.724670 
	C265.938721,482.724670 274.211578,482.724670 283.475891,482.725159 
M226.501312,482.725159 
	C233.242798,482.725159 239.984283,482.725159 246.703918,482.725159 
	C246.703918,466.130676 246.703918,450.395386 246.703918,434.526123 
	C234.059662,434.526123 221.718475,434.526123 209.396576,434.526123 
	C209.396576,450.679535 209.396576,466.420410 209.396576,482.724670 
	C214.943192,482.724670 220.222687,482.724670 226.501312,482.725159 
M233.491867,423.118988 
	C237.900864,423.118988 242.309860,423.118988 246.564774,423.118988 
	C246.564774,406.551788 246.564774,390.842194 246.564774,375.316223 
	C233.903961,375.316223 221.683762,375.316223 209.402161,375.316223 
	C209.402161,391.336853 209.402161,406.920837 209.402161,423.119141 
	C217.279099,423.119141 224.887161,423.119141 233.491867,423.118988 
M295.000885,385.523743 
	C295.000885,382.094513 295.000885,378.665253 295.000885,375.248596 
	C282.030060,375.248596 269.806000,375.248596 257.506073,375.248596 
	C257.506073,391.331085 257.506073,407.043121 257.506073,422.755981 
	C270.127441,422.755981 282.356934,422.755981 295.000885,422.755981 
	C295.000885,410.437958 295.000885,398.478180 295.000885,385.523743 
M340.868103,255.496460 
	C328.679871,250.184250 315.931519,254.025864 303.365906,252.574677 
	C303.365906,278.792755 303.365906,304.376740 303.365906,330.316650 
	C312.881897,330.316650 322.203674,330.914948 331.418915,330.178955 
	C345.895599,329.022766 351.900757,322.492950 353.386902,308.037262 
	C354.262848,299.517242 351.332275,292.440582 345.151917,286.825989 
	C352.762909,275.529785 351.224823,263.606537 340.868103,255.496460 
M264.716766,330.595215 
	C276.671600,330.595215 288.626404,330.595215 300.714233,330.595215 
	C300.714233,326.557281 300.714233,323.007751 300.714233,318.946106 
	C290.354645,318.946106 280.303131,318.946106 269.905182,318.946106 
	C269.905182,296.679840 269.905182,274.930573 269.905182,253.158081 
	C265.823578,253.158081 262.121277,253.158081 258.496704,253.158081 
	C258.496704,279.057709 258.496704,304.587769 258.496704,330.595001 
	C260.504486,330.595001 262.139221,330.595001 264.716766,330.595215 
z"/>
<path fill="#5FB3F9" opacity="1.000000" stroke="none" 
	d="
M511.129608,554.173218 
	C482.801331,554.206055 454.471893,554.117798 426.145752,554.379272 
	C420.814606,554.428467 421.734406,551.277588 421.734100,548.227234 
	C421.725433,457.905548 421.685883,367.583771 421.835785,277.262329 
	C421.844208,272.192719 420.359344,268.654114 416.896423,264.985321 
	C382.248627,228.277649 347.792023,191.389511 313.283936,154.549988 
	C310.096527,151.147217 306.925842,147.728821 303.325012,143.855743 
	C293.564636,133.503082 284.226654,123.612373 274.806641,113.423340 
	C270.735077,108.893135 266.713593,104.690849 262.762146,100.423714 
	C251.822449,88.610016 240.911942,76.769279 229.989899,64.939224 
	C229.989899,64.939224 230.000595,65.003433 230.441132,64.998367 
	C260.457214,65.037971 290.032806,65.082642 319.774567,65.429176 
	C382.489868,132.399673 445.057739,199.050766 507.500580,265.818787 
	C509.440308,267.892883 511.172577,271.176727 511.176117,273.898926 
	C511.297241,367.323517 511.197571,460.748383 511.129608,554.173218 
z"/>
<path fill="#010202" opacity="1.000000" stroke="none" 
	d="
M511.502991,554.292725 
	C511.197571,460.748383 511.297241,367.323517 511.176117,273.898926 
	C511.172577,271.176727 509.440308,267.892883 507.500580,265.818787 
	C445.057739,199.050766 382.489868,132.399673 319.970703,65.132240 
	C325.319427,58.806366 330.695038,53.130733 335.937042,47.334259 
	C339.463654,43.434582 342.801300,39.364010 346.223480,35.369888 
	C348.143921,36.149109 350.612640,36.412342 351.903595,37.784012 
	C375.985840,63.371986 399.940460,89.080139 423.897034,114.786240 
	C470.565277,164.862686 517.194580,214.975540 563.936035,264.983521 
	C566.737793,267.981049 567.935608,270.904022 567.929993,275.056458 
	C567.807495,366.168976 567.836487,457.281677 567.836487,548.394348 
	C567.836487,550.221252 567.836487,552.048157 567.836487,554.412231 
	C549.062927,554.412231 530.469666,554.412231 511.502991,554.292725 
z"/>
<path fill="#5FB3F9" opacity="1.000000" stroke="none" 
	d="
M129.916656,553.682251 
	C100.137070,553.682251 70.357468,553.682251 40.259087,553.682251 
	C40.064392,552.417969 39.749531,551.327820 39.749554,550.237671 
	C39.751472,456.467682 39.777714,362.697662 40.361633,268.464081 
	C70.442169,268.060333 99.963326,268.120178 129.499603,268.635803 
	C129.519089,361.803192 129.520828,454.514771 129.544022,547.226379 
	C129.544571,549.378357 129.787033,551.530273 129.916656,553.682251 
z"/>
<path fill="#000000" opacity="1.000000" stroke="none" 
	d="
M130.395172,553.750488 
	C129.787033,551.530273 129.544571,549.378357 129.544022,547.226379 
	C129.520828,454.514771 129.519089,361.803192 129.747696,268.368408 
	C130.407745,267.136017 130.811905,266.605377 131.265152,266.120636 
	C177.734329,216.425858 224.202789,166.730377 270.704498,117.066010 
	C271.912201,115.776146 273.485748,114.828766 274.888672,113.721672 
	C284.226654,123.612373 293.564636,133.503082 303.035431,143.709488 
	C286.099487,162.247482 269.051605,180.489319 251.956665,198.687027 
	C231.087875,220.902069 210.215469,243.114075 189.238220,265.226410 
	C186.896378,267.695007 185.921448,270.119995 185.924988,273.550476 
	C186.019363,364.830322 186.000046,456.110291 186.000031,547.390259 
	C186.000031,549.359924 186.000046,551.329590 186.000046,553.818726 
	C167.402435,553.818726 149.138062,553.818726 130.395172,553.750488 
z"/>
<path fill="#727373" opacity="1.000000" stroke="none" 
	d="
M274.806641,113.423340 
	C273.485748,114.828766 271.912201,115.776146 270.704498,117.066010 
	C224.202789,166.730377 177.734329,216.425858 131.265152,266.120636 
	C130.811905,266.605377 130.407745,267.136017 129.732574,267.912598 
	C99.963326,268.120178 70.442169,268.060333 40.450607,268.002258 
	C46.650627,260.636749 53.216297,253.171402 60.007988,245.917664 
	C116.435875,185.650879 172.905487,125.423180 229.676208,65.061447 
	C240.911942,76.769279 251.822449,88.610016 262.762146,100.423714 
	C266.713593,104.690849 270.735077,108.893135 274.806641,113.423340 
z"/>
<path fill="#010101" opacity="1.000000" stroke="none" 
	d="
M399.168640,415.000092 
	C399.152069,461.802826 399.136078,508.105560 399.106598,554.408264 
	C399.106384,554.712097 398.919250,555.015808 398.735168,555.575806 
	C370.418488,555.575806 342.025085,555.575806 313.398071,555.575806 
	C313.398071,495.453827 313.398071,435.415283 313.398071,375.103943 
	C341.920685,375.103943 370.300476,375.103943 399.168640,375.103943 
	C399.168640,388.292938 399.168640,401.396484 399.168640,415.000092 
z"/>
<path fill="#737373" opacity="1.000000" stroke="none" 
	d="
M345.772980,35.181145 
	C342.801300,39.364010 339.463654,43.434582 335.937042,47.334259 
	C330.695038,53.130733 325.319427,58.806366 319.804504,64.830376 
	C290.032806,65.082642 260.457214,65.037971 230.408600,64.999435 
	C238.394760,55.835278 246.811661,46.625000 255.378067,37.555920 
	C256.243317,36.639881 258.005310,36.194870 259.361206,36.173611 
	C288.014099,35.724339 316.668427,35.367393 345.772980,35.181145 
z"/>
<path fill="#61B4F9" opacity="1.000000" stroke="none" 
	d="
M282.980164,482.724915 
	C274.211578,482.724670 265.938721,482.724670 257.395691,482.724670 
	C257.395691,466.418213 257.395691,450.676819 257.395691,434.524536 
	C269.722351,434.524536 282.063965,434.524536 294.706238,434.524536 
	C294.706238,450.400787 294.706238,466.137360 294.706238,482.725159 
	C290.965332,482.725159 287.220612,482.725159 282.980164,482.724915 
z"/>
<path fill="#61B4F9" opacity="1.000000" stroke="none" 
	d="
M226.001755,482.724915 
	C220.222687,482.724670 214.943192,482.724670 209.396576,482.724670 
	C209.396576,466.420410 209.396576,450.679535 209.396576,434.526123 
	C221.718475,434.526123 234.059662,434.526123 246.703918,434.526123 
	C246.703918,450.395386 246.703918,466.130676 246.703918,482.725159 
	C239.984283,482.725159 233.242798,482.725159 226.001755,482.724915 
z"/>
<path fill="#60B3F9" opacity="1.000000" stroke="none" 
	d="
M232.993546,423.119080 
	C224.887161,423.119141 217.279099,423.119141 209.402161,423.119141 
	C209.402161,406.920837 209.402161,391.336853 209.402161,375.316223 
	C221.683762,375.316223 233.903961,375.316223 246.564774,375.316223 
	C246.564774,390.842194 246.564774,406.551788 246.564774,423.118988 
	C242.309860,423.118988 237.900864,423.118988 232.993546,423.119080 
z"/>
<path fill="#60B3F9" opacity="1.000000" stroke="none" 
	d="
M295.000885,386.021088 
	C295.000885,398.478180 295.000885,410.437958 295.000885,422.755981 
	C282.356934,422.755981 270.127441,422.755981 257.506073,422.755981 
	C257.506073,407.043121 257.506073,391.331085 257.506073,375.248596 
	C269.806000,375.248596 282.030060,375.248596 295.000885,375.248596 
	C295.000885,378.665253 295.000885,382.094513 295.000885,386.021088 
z"/>
<path fill="#474A4B" opacity="1.000000" stroke="none" 
	d="
M341.165588,255.717529 
	C351.224823,263.606537 352.762909,275.529785 345.151917,286.825989 
	C351.332275,292.440582 354.262848,299.517242 353.386902,308.037262 
	C351.900757,322.492950 345.895599,329.022766 331.418915,330.178955 
	C322.203674,330.914948 312.881897,330.316650 303.365906,330.316650 
	C303.365906,304.376740 303.365906,278.792755 303.365906,252.574677 
	C315.931519,254.025864 328.679871,250.184250 341.165588,255.717529 
M350.165955,308.288635 
	C351.316406,299.208466 347.975464,292.121552 340.154785,287.256165 
	C346.851501,281.020996 348.585144,273.378601 345.421387,265.539948 
	C342.341705,257.909668 336.169952,255.698792 328.561798,255.837097 
	C322.404602,255.949020 316.241119,255.966003 310.085663,255.814102 
	C307.181335,255.742432 305.922699,256.547028 305.938599,259.716705 
	C306.044434,280.857300 306.057587,301.999023 305.929291,323.139343 
	C305.908234,326.603973 307.332764,327.346130 310.402649,327.270813 
	C317.223724,327.103363 324.053589,327.308014 330.875458,327.158508 
	C342.379425,326.906433 348.995758,320.662109 350.165955,308.288635 
z"/>
<path fill="#46494B" opacity="1.000000" stroke="none" 
	d="
M264.245361,330.595093 
	C262.139221,330.595001 260.504486,330.595001 258.496704,330.595001 
	C258.496704,304.587769 258.496704,279.057709 258.496704,253.158081 
	C262.121277,253.158081 265.823578,253.158081 269.905182,253.158081 
	C269.905182,274.930573 269.905182,296.679840 269.905182,318.946106 
	C280.303131,318.946106 290.354645,318.946106 300.714233,318.946106 
	C300.714233,323.007751 300.714233,326.557281 300.714233,330.595215 
	C288.626404,330.595215 276.671600,330.595215 264.245361,330.595093 
M267.070038,262.597412 
	C267.070038,260.497955 267.070038,258.398499 267.070038,256.342224 
	C263.618225,255.762344 260.947205,254.926392 260.962372,259.404999 
	C261.035095,280.882446 260.957428,302.360535 261.108795,323.837158 
	C261.116699,324.961182 262.716034,327.027679 263.608398,327.046478 
	C274.258881,327.271027 284.916565,327.243774 295.569427,327.085693 
	C296.397675,327.073425 297.996613,325.376007 297.851959,324.826447 
	C297.569122,323.751770 296.465210,322.549225 295.407623,322.115662 
	C294.264893,321.647156 292.786743,321.990997 291.454895,321.990662 
	C283.514954,321.988739 275.574982,321.989716 267.936859,321.989716 
	C267.495758,321.084503 267.232819,320.796173 267.231781,320.506897 
	C267.164398,301.530426 267.118195,282.553925 267.070038,262.597412 
z"/>
<path fill="#030303" opacity="1.000000" stroke="none" 
	d="
M350.155579,308.741425 
	C348.995758,320.662109 342.379425,326.906433 330.875458,327.158508 
	C324.053589,327.308014 317.223724,327.103363 310.402649,327.270813 
	C307.332764,327.346130 305.908234,326.603973 305.929291,323.139343 
	C306.057587,301.999023 306.044434,280.857300 305.938599,259.716705 
	C305.922699,256.547028 307.181335,255.742432 310.085663,255.814102 
	C316.241119,255.966003 322.404602,255.949020 328.561798,255.837097 
	C336.169952,255.698792 342.341705,257.909668 345.421387,265.539948 
	C348.585144,273.378601 346.851501,281.020996 340.154785,287.256165 
	C347.975464,292.121552 351.316406,299.208466 350.155579,308.741425 
M342.584045,314.756226 
	C342.967987,309.860840 344.505829,304.671234 343.357269,300.166595 
	C342.495667,296.787262 338.503113,292.312744 335.335907,291.793427 
	C327.836151,290.563690 319.997864,291.398163 312.449768,291.398163 
	C312.449768,301.832062 312.449768,311.716278 312.449768,321.935364 
	C318.820496,321.935364 324.784271,321.932251 330.748047,321.936310 
	C335.799500,321.939758 339.741577,319.993927 342.584045,314.756226 
M324.392151,261.078430 
	C320.447083,261.078430 316.502014,261.078430 312.348022,261.078430 
	C312.348022,269.311890 312.348022,276.868988 312.348022,284.977356 
	C317.955536,284.977356 323.272583,284.623657 328.525024,285.055542 
	C337.715820,285.811279 343.130890,277.195709 340.194092,268.370453 
	C338.443939,263.110931 334.316559,261.088867 324.392151,261.078430 
z"/>
<path fill="#040404" opacity="1.000000" stroke="none" 
	d="
M267.070099,263.087402 
	C267.118195,282.553925 267.164398,301.530426 267.231781,320.506897 
	C267.232819,320.796173 267.495758,321.084503 267.936859,321.989716 
	C275.574982,321.989716 283.514954,321.988739 291.454895,321.990662 
	C292.786743,321.990997 294.264893,321.647156 295.407623,322.115662 
	C296.465210,322.549225 297.569122,323.751770 297.851959,324.826447 
	C297.996613,325.376007 296.397675,327.073425 295.569427,327.085693 
	C284.916565,327.243774 274.258881,327.271027 263.608398,327.046478 
	C262.716034,327.027679 261.116699,324.961182 261.108795,323.837158 
	C260.957428,302.360535 261.035095,280.882446 260.962372,259.404999 
	C260.947205,254.926392 263.618225,255.762344 267.070038,256.342224 
	C267.070038,258.398499 267.070038,260.497955 267.070099,263.087402 
z"/>
<path fill="#404345" opacity="1.000000" stroke="none" 
	d="
M342.396118,315.098511 
	C339.741577,319.993927 335.799500,321.939758 330.748047,321.936310 
	C324.784271,321.932251 318.820496,321.935364 312.449768,321.935364 
	C312.449768,311.716278 312.449768,301.832062 312.449768,291.398163 
	C319.997864,291.398163 327.836151,290.563690 335.335907,291.793427 
	C338.503113,292.312744 342.495667,296.787262 343.357269,300.166595 
	C344.505829,304.671234 342.967987,309.860840 342.396118,315.098511 
M341.145691,307.329956 
	C341.280670,299.495789 338.917023,294.832611 333.472778,294.289978 
	C327.467255,293.691406 321.356018,294.153351 315.016693,294.153351 
	C315.016693,298.459229 315.016693,302.422791 315.016693,306.386383 
	C315.016693,310.484436 315.016693,314.582489 315.016693,318.976318 
	C320.341003,318.976318 325.138397,319.168365 329.914520,318.931396 
	C337.109222,318.574432 340.028748,315.636444 341.145691,307.329956 
z"/>
<path fill="#3C3E40" opacity="1.000000" stroke="none" 
	d="
M324.868927,261.078522 
	C334.316559,261.088867 338.443939,263.110931 340.194092,268.370453 
	C343.130890,277.195709 337.715820,285.811279 328.525024,285.055542 
	C323.272583,284.623657 317.955536,284.977356 312.348022,284.977356 
	C312.348022,276.868988 312.348022,269.311890 312.348022,261.078430 
	C316.502014,261.078430 320.447083,261.078430 324.868927,261.078522 
M337.808624,272.715668 
	C337.309204,267.526367 334.540222,264.488190 329.270142,264.262543 
	C324.677917,264.065918 320.070648,264.221558 315.284729,264.221558 
	C315.284729,270.327026 315.284729,276.017426 315.284729,282.000641 
	C319.686768,282.000641 323.806915,282.052032 327.925293,281.989044 
	C334.729645,281.885040 336.364258,280.449585 337.808624,272.715668 
z"/>
<path fill="#FDFBF8" opacity="1.000000" stroke="none" 
	d="
M341.137390,307.768005 
	C340.028748,315.636444 337.109222,318.574432 329.914520,318.931396 
	C325.138397,319.168365 320.341003,318.976318 315.016693,318.976318 
	C315.016693,314.582489 315.016693,310.484436 315.016693,306.386383 
	C315.016693,302.422791 315.016693,298.459229 315.016693,294.153351 
	C321.356018,294.153351 327.467255,293.691406 333.472778,294.289978 
	C338.917023,294.832611 341.280670,299.495789 341.137390,307.768005 
z"/>
<path fill="#FBF9F6" opacity="1.000000" stroke="none" 
	d="
M337.817749,273.106201 
	C336.364258,280.449585 334.729645,281.885040 327.925293,281.989044 
	C323.806915,282.052032 319.686768,282.000641 315.284729,282.000641 
	C315.284729,276.017426 315.284729,270.327026 315.284729,264.221558 
	C320.070648,264.221558 324.677917,264.065918 329.270142,264.262543 
	C334.540222,264.488190 337.309204,267.526367 337.817749,273.106201 
z"/>
</svg>