<?xml version="1.0" encoding="UTF-8" standalone="no" ?>
<!DOCTYPE svg PUBLIC "-//W3C//DTD SVG 1.1//EN" "http://www.w3.org/Graphics/SVG/1.1/DTD/svg11.dtd">
<svg xmlns="http://www.w3.org/2000/svg" xmlns:xlink="http://www.w3.org/1999/xlink" version="1.1" width="1280" height="1024" viewBox="0 0 1280 1024" xml:space="preserve">
<desc>Created with Fabric.js 5.3.0</desc>
<defs>
</defs>
<g transform="matrix(1 0 0 1 640 512)" id="background-logo"  >
<rect style="stroke: none; stroke-width: 0; stroke-dasharray: none; stroke-linecap: butt; stroke-dashoffset: 0; stroke-linejoin: miter; stroke-miterlimit: 4; fill: rgb(255,252,249); fill-rule: nonzero; opacity: 1;"  paint-order="stroke"  x="-640" y="-512" rx="0" ry="0" width="1280" height="1024" />
</g>
<g transform="matrix(1.9211538461538462 0 0 1.9211538461538462 820.5208864205192 644.798660004729)" id="text-logo"  >
<g style=""  paint-order="stroke"   >
		<g transform="matrix(1 0 0 1 5.684342e-14 0)" id="text-logo-path-0"  >
<path style="stroke: rgb(58,60,49); stroke-width: 1.8666666666666667; stroke-dasharray: none; stroke-linecap: butt; stroke-dashoffset: 0; stroke-linejoin: miter; stroke-miterlimit: 4; fill: rgb(22,22,22); fill-rule: nonzero; opacity: 1;"  paint-order="stroke"  transform=" translate(-207.315, 10.334999999999999)" d="M 12.77 0 L 12.77 -1.9 L 4.2 -1.9 L 4.2 -20.72 L 2.13 -20.72 L 2.13 0 Z M 42.17 0 L 33.26 -20.72 L 30.97 -20.72 L 22.06 0 L 24.3 0 L 27.27 -6.94 L 36.9 -6.94 L 39.93 0 Z M 36.12 -8.85 L 28.11 -8.85 L 32.14 -18.31 Z M 69.78 0 L 69.78 -20.72 L 67.7 -20.72 L 67.7 -3.53 L 56.11 -20.72 L 53.31 -20.72 L 53.31 0 L 55.38 0 L 55.38 -18.2 L 67.7 0 Z M 100.24 -10.42 C 100.24 -13.44 98.9 -15.85 97.22 -17.58 C 95.2 -19.71 91.95 -20.72 88.7 -20.72 L 82.77 -20.72 L 82.77 0 L 89.15 0 C 92.62 0 95.48 -1.18 97.16 -2.97 C 99.34 -5.26 100.24 -7.67 100.24 -10.42 Z M 98.17 -10.42 C 98.17 -7.56 96.99 -5.49 94.98 -3.81 C 93.13 -2.24 90.55 -1.9 88.2 -1.9 L 84.84 -1.9 L 84.84 -18.82 L 88.76 -18.82 C 91.73 -18.82 94.3 -17.92 96.1 -15.9 C 97.38 -14.5 98.17 -12.66 98.17 -10.42 Z M 125.66 -5.88 C 125.66 -8.18 124.43 -10.19 122.3 -11.09 C 123.59 -11.98 124.54 -13.44 124.54 -15.23 C 124.54 -16.69 123.93 -17.86 123.14 -18.82 C 122.08 -20.05 120.23 -20.72 117.99 -20.72 L 112.56 -20.72 L 112.56 0 L 118.22 0 C 121.02 0 123.03 -0.62 124.38 -2.24 C 125.27 -3.36 125.66 -4.37 125.66 -5.88 Z M 122.47 -15.34 C 122.47 -12.71 120.06 -11.87 117.88 -11.87 L 114.63 -11.87 L 114.63 -18.82 C 115.7 -18.82 117.26 -18.87 118.33 -18.87 C 121.58 -18.87 122.47 -16.46 122.47 -15.34 Z M 123.59 -5.88 C 123.59 -3.19 121.35 -1.9 118.61 -1.9 L 114.63 -1.9 L 114.63 -9.97 L 118.1 -9.97 C 121.02 -9.97 123.59 -8.96 123.59 -5.88 Z M 148.85 0 L 148.85 -1.9 L 139.61 -1.9 L 139.61 -9.52 L 148.57 -9.52 L 148.57 -11.37 L 139.61 -11.37 L 139.61 -18.82 L 148.85 -18.82 L 148.85 -20.72 L 137.54 -20.72 L 137.54 0 Z M 175.56 -14 C 175.56 -15.96 174.78 -17.53 173.71 -18.65 C 172.2 -20.16 170.13 -20.72 167.5 -20.72 L 161.5 -20.72 L 161.5 0 L 163.58 0 L 163.58 -18.82 L 167.78 -18.82 C 169.46 -18.82 171.08 -18.42 172.14 -17.36 C 172.93 -16.58 173.49 -15.46 173.49 -14 C 173.49 -12.6 172.7 -11.31 171.81 -10.58 C 170.69 -9.63 168.73 -9.41 167.78 -9.41 L 165.65 -9.41 L 172.7 0 L 175.28 0 L 169.46 -7.73 C 172.98 -7.84 175.56 -10.75 175.56 -14 Z M 208.54 -9.58 L 194.54 -9.58 L 194.54 -7.67 L 206.08 -7.67 C 205.07 -4.09 201.43 -1.62 197.68 -1.62 C 192.86 -1.62 188.61 -5.38 188.61 -10.42 C 188.61 -13.05 190.01 -15.51 191.74 -16.97 C 193.42 -18.37 195.44 -19.04 197.62 -19.04 C 200.37 -19.04 203.62 -17.64 204.96 -15.18 L 207.31 -15.18 C 205.86 -18.65 201.82 -21.06 197.62 -21.06 C 194.88 -21.06 192.25 -20.1 190.34 -18.42 C 188.16 -16.52 186.54 -13.72 186.54 -10.42 C 186.54 -4.31 191.8 0.39 197.62 0.39 C 203.84 0.39 208.38 -4.65 208.54 -9.58 Z M 250.77 -5.88 C 250.77 -8.18 249.54 -10.19 247.41 -11.09 C 248.7 -11.98 249.65 -13.44 249.65 -15.23 C 249.65 -16.69 249.03 -17.86 248.25 -18.82 C 247.18 -20.05 245.34 -20.72 243.1 -20.72 L 237.66 -20.72 L 237.66 0 L 243.32 0 C 246.12 0 248.14 -0.62 249.48 -2.24 C 250.38 -3.36 250.77 -4.37 250.77 -5.88 Z M 247.58 -15.34 C 247.58 -12.71 245.17 -11.87 242.98 -11.87 L 239.74 -11.87 L 239.74 -18.82 C 240.8 -18.82 242.37 -18.87 243.43 -18.87 C 246.68 -18.87 247.58 -16.46 247.58 -15.34 Z M 248.7 -5.88 C 248.7 -3.19 246.46 -1.9 243.71 -1.9 L 239.74 -1.9 L 239.74 -9.97 L 243.21 -9.97 C 246.12 -9.97 248.7 -8.96 248.7 -5.88 Z M 277.03 -20.72 L 274.79 -20.72 L 268.8 -9.07 L 262.86 -20.72 L 260.57 -20.72 L 267.79 -6.94 L 267.79 0 L 269.86 0 L 269.86 -6.94 Z M 309.34 -9.58 L 295.34 -9.58 L 295.34 -7.67 L 306.88 -7.67 C 305.87 -4.09 302.23 -1.62 298.48 -1.62 C 293.66 -1.62 289.41 -5.38 289.41 -10.42 C 289.41 -13.05 290.81 -15.51 292.54 -16.97 C 294.22 -18.37 296.24 -19.04 298.42 -19.04 C 301.17 -19.04 304.42 -17.64 305.76 -15.18 L 308.11 -15.18 C 306.66 -18.65 302.62 -21.06 298.42 -21.06 C 295.68 -21.06 293.05 -20.1 291.14 -18.42 C 288.96 -16.52 287.34 -13.72 287.34 -10.42 C 287.34 -4.31 292.6 0.39 298.42 0.39 C 304.64 0.39 309.18 -4.65 309.34 -9.58 Z M 342.72 -9.58 L 328.72 -9.58 L 328.72 -7.67 L 340.26 -7.67 C 339.25 -4.09 335.61 -1.62 331.86 -1.62 C 327.04 -1.62 322.78 -5.38 322.78 -10.42 C 322.78 -13.05 324.18 -15.51 325.92 -16.97 C 327.6 -18.37 329.62 -19.04 331.8 -19.04 C 334.54 -19.04 337.79 -17.64 339.14 -15.18 L 341.49 -15.18 C 340.03 -18.65 336 -21.06 331.8 -21.06 C 329.06 -21.06 326.42 -20.1 324.52 -18.42 C 322.34 -16.52 320.71 -13.72 320.71 -10.42 C 320.71 -4.31 325.98 0.39 331.8 0.39 C 338.02 0.39 342.55 -4.65 342.72 -9.58 Z M 390.15 0 L 381.25 -20.72 L 378.95 -20.72 L 370.05 0 L 372.29 0 L 375.26 -6.94 L 384.89 -6.94 L 387.91 0 Z M 384.1 -8.85 L 376.1 -8.85 L 380.13 -18.31 Z M 412.5 -5.71 C 412.5 -7.95 411.26 -10.08 408.8 -11.14 L 404.88 -12.32 C 403.59 -12.71 402.53 -13.78 402.53 -15.46 C 402.53 -17.53 404.21 -19.04 406.11 -19.04 C 408.18 -19.04 409.64 -17.58 409.86 -15.46 L 411.99 -15.46 C 411.99 -18.7 409.42 -21.06 406.28 -21.06 C 403.03 -21.06 400.46 -18.7 400.46 -15.51 C 400.46 -13.44 401.58 -11.48 403.87 -10.64 C 405.44 -10.08 407.46 -9.58 407.46 -9.58 C 409.25 -8.96 410.42 -7.45 410.42 -5.71 C 410.42 -3.3 408.46 -1.62 406.17 -1.62 C 403.65 -1.62 402.02 -3.75 402.02 -5.82 L 399.78 -5.82 C 399.78 -2.07 402.75 0.39 406.22 0.39 C 409.58 0.39 412.5 -2.3 412.5 -5.71 Z" stroke-linecap="round" />
</g>
</g>
</g>
<g transform="matrix(1.3319667470347991 0 0 1.3319667470347991 217.74845186166067 513.4395933946098)" id="shape-3583f366-f157-45b8-9bed-d32ddb70218b"  >
<g style=""  paint-order="stroke"   >
		<g transform="matrix(1 0 0 1 19.137429999999995 0.002074999999990723)" id="path-03"  >
<path style="stroke: none; stroke-width: 1; stroke-dasharray: none; stroke-linecap: butt; stroke-dashoffset: 0; stroke-linejoin: miter; stroke-miterlimit: 4; fill: rgb(0,0,0); fill-rule: nonzero; opacity: 1;"  paint-order="stroke"  transform=" translate(-145.985705, -125.00207499999999)" d="M 253.69655 112.51638 L 253.69655 249.41573 L 226.6704 249.41573 L 213.15346 236.42571999999998 L 212.83977 119.73532999999999 L 139.12407 37.863849999999985 L 126.77304999999998 52.38453999999999 L 70.4824 112.1433 L 70.38567 112.1433 L 70.38567 112.08806 L 70.33043 112.1433 L 70.38567 112.1433 L 70.38567 249.00126 L 43.35952 249.00126 L 38.39925 241.89927 L 38.27486 103.5353 L 126.89744999999999 6.8297799999999995 L 148.17574 0.00414999999999921 L 148.75602999999998 0.00414999999999921 L 162.31054999999998 14.53971 L 162.36578999999998 14.594949999999999 L 185.26065999999997 39.14788 L 253.69655 112.51638 z M 131.50061 250 L 172.71405 250 L 172.71405 163.20051999999998 L 131.50061 163.20051999999998 L 131.50061 250 z" stroke-linecap="round" />
</g>
		<g transform="matrix(1 0 0 1 -13.468385000000012 1.8925999999999874)" id="path-02"  >
<path style="stroke: none; stroke-width: 1; stroke-dasharray: none; stroke-linecap: butt; stroke-dashoffset: 0; stroke-linejoin: miter; stroke-miterlimit: 4; fill: rgb(55,182,255); fill-rule: nonzero; opacity: 1;"  paint-order="stroke"  transform=" translate(-113.37988999999999, -126.89259999999999)" d="M 43.35774 248.99701 L 43.35774 249.01119 L 0.09647 249.01119 L 0.09647 112.11175 L 43.625029999999995 99.36557 L 43.247099999999996 112.11175 L 43.247099999999996 248.997 L 43.35774 248.997 z M 226.66331 249.41026 L 226.66331 249.43792 L 183.40203 249.43792 L 183.40203 112.73212 L 183.33323 112.73212 L 126.7663 52.37899 L 114.35862 39.14215 L 112.93509 37.62213 L 112.92159000000001 37.59447 L 92.75996 33.97276 L 91.29804 14.53389 L 118.41129000000001 4.34728 L 134.36567000000002 14.53389 L 134.40682 14.58921 L 134.44799 14.631039999999999 L 148.37568000000002 29.414879999999997 L 157.5369 39.14214 L 177.9582 60.82101 L 178.45542 61.34591 L 179.51937 62.479330000000004 L 179.94778000000002 62.948890000000006 L 226.42852000000002 112.53847 L 226.17957 112.53847 L 226.55266 112.73211 L 226.55266 249.41026 L 226.66331 249.41026 z M 81.54987 163.19731 L 81.54987 186.36853 L 99.65017 186.36853 L 99.65017 163.19731 L 81.54987 163.19731 z M 81.54987 191.7019 L 81.54987 214.87312 L 99.65017 214.87312 L 99.65017 191.7019 L 81.54987 191.7019 z M 104.63819 163.19731 L 104.63819 186.36853 L 122.75233 186.36853 L 122.75233 163.19731 L 104.63819 163.19731 z M 104.63819 191.7019 L 104.63819 214.87312 L 122.75233 214.87312 L 122.75233 191.7019 L 104.63819 191.7019 z" stroke-linecap="round" />
</g>
		<g transform="matrix(1 0 0 1 -52.837320000000005 -69.04094500000001)" id="path-01"  >
<path style="stroke: none; stroke-width: 1; stroke-dasharray: none; stroke-linecap: butt; stroke-dashoffset: 0; stroke-linejoin: miter; stroke-miterlimit: 4; fill: rgb(115,115,115); fill-rule: nonzero; opacity: 1;"  paint-order="stroke"  transform=" translate(-74.010955, -55.95905499999999)" d="M 148.02191 0 L 134.52263 14.48024 L 134.4673 14.53556 L 91.30318 14.53556 L 91.28901 14.52208 L 104.26341000000001 0.6908500000000011 L 148.02191 0 z M 112.92673 37.59614 L 111.4762 39.14382 L 43.26126000000001 111.91810999999998 L 0 111.91810999999998 L 68.21495 39.14381999999999 L 91.27552 14.53556999999999 L 91.30318 14.53556999999999 L 112.92673 37.59614 z" stroke-linecap="round" />
</g>
</g>
</g>
<g transform="matrix(1.9211538461538462 0 0 1.9211538461538462 219.1980700266492 511.08616003524025)" id="tagline-cfe12e3e-b7d1-4800-a65e-180d1d6279f1-logo"  >
<g style=""  paint-order="stroke"   >
		<g transform="matrix(1 0 0 1 0 0)" id="tagline-cfe12e3e-b7d1-4800-a65e-180d1d6279f1-logo-path-0"  >
<path style="stroke: rgb(56,60,62); stroke-width: 2; stroke-dasharray: none; stroke-linecap: butt; stroke-dashoffset: 0; stroke-linejoin: miter; stroke-miterlimit: 4; fill: rgb(0,0,0); fill-rule: nonzero; opacity: 1;"  paint-order="stroke"  transform=" translate(-17.53, 11.925)" d="M 14.95 0 L 2.66 0 L 2.66 -23.85 L 4.56 -23.85 L 4.56 -1.7 L 14.95 -1.7 L 14.95 0 Z M 25.48 0 L 17.65 0 L 17.65 -23.85 L 25.17 -23.85 Q 27.96 -23.85 29.57 -22.42 Q 31.17 -20.99 31.17 -17.97 Q 31.17 -14.95 28.93 -13.42 L 28.93 -13.42 Q 28.89 -13.39 28.89 -13.36 L 28.89 -13.36 L 28.89 -13.32 Q 30.39 -12.64 31.4 -11.1 Q 32.4 -9.57 32.4 -7.12 L 32.4 -7.12 Q 32.4 -4.39 31.01 -2.38 L 31.01 -2.38 Q 30.29 -1.28 28.88 -0.64 Q 27.46 0 25.48 0 L 25.48 0 Z M 19.55 -12.19 L 19.55 -1.81 L 25.42 -1.81 Q 30.36 -1.81 30.36 -7.25 L 30.36 -7.25 Q 30.36 -9.63 29.06 -10.91 Q 27.76 -12.19 26 -12.19 L 26 -12.19 L 19.55 -12.19 Z M 19.55 -22.04 L 19.55 -14.07 L 25.1 -14.07 Q 27.01 -14.07 28.1 -15.1 Q 29.19 -16.12 29.19 -18.05 L 29.19 -18.05 Q 29.19 -22.04 24.9 -22.04 L 24.9 -22.04 L 19.55 -22.04 Z" stroke-linecap="round" />
</g>
</g>
</g>
</svg>